<?xml version="1.0" encoding="utf-8"?>
<!-- Generator: Adobe Illustrator 25.0.1, SVG Export Plug-In . SVG Version: 6.00 Build 0)  -->
<svg version="1.1" id="Layer_1" xmlns="http://www.w3.org/2000/svg" xmlns:xlink="http://www.w3.org/1999/xlink" x="0px" y="0px"
	 viewBox="0 0 536 729.4" style="enable-background:new 0 0 536 729.4;" xml:space="preserve">
<style type="text/css">
	.st0{fill:#1D3767;}
	.st1{fill:#FFFFFF;}
	.st2{fill:#B52025;}
</style>
<g>
	<path class="st0" d="M270.6,195.5l-33-16.9c1.1-1.7,2.3-3.3,3.5-4.9l33.4,17.1C273.2,192.3,271.9,193.9,270.6,195.5z M286.8,177.3
		l-34-17.4c-1.3,1.3-2.6,2.7-3.8,4.1l33.9,17.3C284.2,180,285.5,178.7,286.8,177.3z M300.6,164.1L267,146.9
		c-1.6,1.3-3.2,2.7-4.9,4.2l33.8,17.3C297.5,166.9,299,165.5,300.6,164.1z M515.9,91v439.6c-0.9,51.2-40.3,68.5-76.7,81.9l-28.5,8
		c-42.7,5.5-84.2,15.9-140.6,74.7c-0.1-0.1-0.2-0.2-0.2-0.3c-0.1,0.1-0.2,0.2-0.2,0.3c-56.4-58.7-97.9-69.2-140.6-74.7l-28.5-8
		c-36.4-13.5-75.8-30.8-76.7-81.9V91c67.2,53.2,164.8,44.5,222.5-21.6c9.5-10.9,17.3-22.7,23.5-35.1c6.2,12.4,14,24.2,23.5,35.1
		C351.2,135.5,448.8,144.2,515.9,91z M393.6,261.2l20.6-16.4h-25.8l-8.2-23.3l-8.2,23.3h-24.9l19.9,16.3l-8.2,24.3l21.2-15.3
		l21.3,16.2L393.6,261.2z M346.5,168.7L346.5,168.7l10,8.1l10,8.1l-4.1,12.1l-4.1,12.1l0,0l0,0l21.2-15.3l21.3,16.2l-7.8-25.1
		l20.6-16.4l0,0l0,0h-25.8l-8.2-23.3l-8.2,23.3h-24.9V168.7z M206.5,274.4c4-11.1,16.6-44,35-74.1l-12.9-6.6
		c0.8-1.6,1.7-3.2,2.5-4.8l32.1,16.4c-1,1.5-1.9,3-2.8,4.6l-12.2-6.3c-19.1,29.4-34.4,64.2-38.6,74c12.1,1.5,77.9,6.6,114.4-49.7
		c29.9-46.1,11.3-96.2,6.9-106.4c-5.5,4-16.6,12.3-29.4,23.4l13.2,6.7c-1.5,1.2-3,2.5-4.5,3.8l-32.7-16.7c1.7-1.2,3.4-2.4,5-3.5
		l10.7,5.5c14.5-11.8,26.6-18.3,33.2-21.4c-15.6-1.3-76.8-2.9-108.2,47.9C187.6,216.8,201.9,262.5,206.5,274.4z M126.3,168.7
		L126.3,168.7l10,8.1l10,8.1l-4.1,12.1l-4.1,12.1l0,0l0,0l21.3-15.3l21.3,16.2l-7.9-25.1l20.6-16.4l0,0l0,0h-25.8l-8.2-23.3
		l-8.2,23.3h-24.9V168.7z M126.3,244.8l19.9,16.3l-8.2,24.3l21.3-15.3l21.3,16.2l-7.9-25.1l20.6-16.4h-25.8l-8.2-23.3l-8.2,23.3
		L126.3,244.8L126.3,244.8z M43.9,168.7L43.9,168.7l10,8.1l10,8.1L59.8,197l-4.1,12.1l0,0l0,0L76.9,194l21.3,16.2l-7.8-25.1
		l20.6-16.4l0,0l0,0H85.1l-8.2-23.3l-8.2,23.3H43.9L43.9,168.7z M44.6,244.8l19.9,16.3l-8.2,24.3l21.2-15.3l21.3,16.2L91,261.2
		l20.6-16.4H85.8l-8.2-23.3l-8.2,23.3L44.6,244.8L44.6,244.8z M491.6,303.3H48.3v211.1c0.9,47,36.3,62.9,69.1,75.3L143,597
		c38.5,5,75.9,14.6,126.7,68.6c0.1-0.1,0.1-0.2,0.2-0.3c0.1,0.1,0.1,0.2,0.2,0.3c50.8-53.9,88.2-63.6,126.7-68.6l25.6-7.3
		c32.8-12.4,68.2-28.3,69.1-75.3L491.6,303.3L491.6,303.3z M428.9,168.7L428.9,168.7l10,8.1l10,8.1l-4.1,12.1l-4.1,12.1l0,0l0,0
		l21.3-15.3l21.3,16.2l-7.9-25.1l20.6-16.4l0,0l0,0h-25.8l-8.2-23.3l-8.2,23.3h-24.9V168.7z M428.9,244.8l19.9,16.3l-8.2,24.3
		l21.3-15.3l21.3,16.2l-7.9-25.1l20.6-16.4h-25.8l-8.2-23.3l-8.2,23.3L428.9,244.8L428.9,244.8z"/>
	<path class="st1" d="M293,37.7C282.9,26,274.7,13.3,268,0c-6.7,13.3-14.9,26-25,37.7C179.9,110.8,95.1,135.3,0,49.5v498.2
		c1,56.6,44,75.7,83.7,90.6l31.1,8.8c46.6,6,91.8,17.6,153.2,82.2c61.4-64.6,106.6-76.2,153.2-82.2l31.1-8.8
		c39.7-14.9,82.7-34,83.7-90.6V49.5C440.9,135.3,356.1,110.8,293,37.7z M515.9,530.6c-0.9,51.2-40.3,68.5-76.7,81.9l-28.5,8
		c-42.7,5.5-84.2,15.9-140.6,74.7c-0.1-0.1-0.2-0.2-0.2-0.3c-0.1,0.1-0.2,0.2-0.2,0.3c-56.4-58.7-97.9-69.2-140.6-74.7l-28.5-8
		c-36.4-13.5-75.8-30.8-76.7-81.9V91c67.2,53.2,164.8,44.5,222.5-21.6c9.5-10.9,17.3-22.7,23.5-35.1c6.2,12.4,14,24.2,23.5,35.1
		c57.8,66.1,155.3,74.8,222.5,21.6L515.9,530.6L515.9,530.6z M461.9,145.4l8.2,23.3H496l-20.6,16.4l7.9,25.1L461.9,194l-21.3,15.3
		l8.2-24.3l-19.9-16.3h24.9L461.9,145.4z M453.8,244.8h-24.9l19.9,16.3l-8.2,24.3l21.3-15.3l21.3,16.2l-7.9-25.1l20.6-16.4h-25.8
		l-8.2-23.3L453.8,244.8z M372,244.8h-24.9l19.9,16.3l-8.2,24.3l21.2-15.3l21.3,16.2l-7.9-25.1l20.6-16.4h-25.8l-8.2-23.3L372,244.8
		z M371.4,168.7h-24.9l20,16.3l-8.2,24.3l21.2-15.3l21.3,16.2l-7.8-25.1l20.6-16.4h-25.8l-8.2-23.3L371.4,168.7z M159.4,145.4
		l8.2,23.3h25.8l-20.6,16.4l7.9,25.1L159.4,194l-21.3,15.3l8.2-24.3l-19.9-16.3h24.9L159.4,145.4z M151.2,244.8h-24.9l19.9,16.3
		l-8.2,24.3l21.3-15.3l21.3,16.2l-7.9-25.1l20.6-16.4h-25.8l-8.2-23.3L151.2,244.8z M69.4,244.8H44.6l19.9,16.3l-8.2,24.3l21.2-15.3
		l21.3,16.2L91,261.2l20.6-16.4H85.8l-8.2-23.3L69.4,244.8z M68.8,168.7H43.9L63.8,185l-8.2,24.3L76.9,194l21.3,16.2l-7.8-25.1
		l20.6-16.4H85.1l-8.2-23.3L68.8,168.7z M331,121.6c-5.5,4-16.6,12.3-29.4,23.4l13.2,6.7c-1.5,1.2-3,2.5-4.5,3.8l-32.7-16.7
		c1.7-1.2,3.4-2.4,5-3.5l10.7,5.5c14.5-11.8,26.6-18.3,33.2-21.4c-15.6-1.3-76.8-2.9-108.2,47.9c-30.7,49.6-16.4,95.3-11.8,107.2
		c4-11.1,16.6-44,35-74.1l-12.9-6.6c0.8-1.6,1.7-3.2,2.5-4.8l32.1,16.4c-1,1.5-1.9,3-2.8,4.6l-12.2-6.3
		c-19.1,29.4-34.4,64.2-38.6,74c12.1,1.5,77.9,6.6,114.4-49.7C354,182,335.4,131.9,331,121.6z M270.6,195.5l-33-16.9
		c1.1-1.7,2.3-3.3,3.5-4.9l33.4,17.1C273.2,192.3,271.9,193.9,270.6,195.5z M282.9,181.4L249,164.1c1.3-1.4,2.5-2.8,3.8-4.1l34,17.4
		C285.5,178.7,284.2,180,282.9,181.4z M295.9,168.4l-33.8-17.3c1.6-1.4,3.2-2.8,4.9-4.2l33.6,17.2
		C299,165.5,297.5,166.9,295.9,168.4z M48.3,303.3v211.1c0.9,47,36.3,62.9,69.1,75.3L143,597c38.5,5,75.9,14.6,126.7,68.6
		c0.1-0.1,0.1-0.2,0.2-0.3c0.1,0.1,0.1,0.2,0.2,0.3c50.8-53.9,88.2-63.6,126.7-68.6l25.6-7.3c32.8-12.4,68.2-28.3,69.1-75.3V303.3
		H48.3z M215.6,364.7h-10.9v193.8v22.3v0.2L167,569.3l-42.4-121.2v7v62.6c8.5,3.4,13.8,6.6,13.8,6.6l3,37.7c0,0-27.1-11.6-38-14.4
		c-13.5-3.4-32.2-4.2-32.2-4.2l-2.7-34c0,0,7.8,0,16.8,0.5v-54.8v-92.4H74.2v-33.4h11.2h39.2v0.1l40.9,117v-81.7h-11.4v-33.4h11.4
		h39.2h10.9L215.6,364.7L215.6,364.7z M343.8,352.9v11.9v19.6h-26.5l-8.4-19.6h-25.8v61.6h20.1l5.3-14.8h22v14.8V442v1v16.7v13.8
		h-22l-4.9-13.8h-20.5v50.6v46.3V568c8.2,3.6,13.3,6.8,13.3,6.8v33.5c0,0-26.1-12.2-36.7-15.4c-13.1-4-31.7-6-31.7-6v-30.3
		c0,0,7.4,0.5,16,1.5v-1.5v-29.4v-16.9v-50.6v-33.4v-61.6h-14v-33.4h14h39.2H344v21.6H343.8z M468.9,510.9v29.7v2.9
		c0,0-30.9,2.7-59.7,14.3c-15,6-45.8,23.5-58.2,30.7v-38.2c4.5-2.9,10.2-6.2,16.9-9.7v-18.8v-37.3V364.8l-11.4-5.2v-28.3h11.4H387h1
		h19.1h11.4v28.3l-11.4,5.2v119.7v37.3v3.2c9.4-2.6,20.6-5.3,30.9-7.6v-47.6h30.9V510.9z"/>
	<path class="st2" d="M343.8,331.3v21.6v11.9v19.6h-26.5l-8.4-19.6h-25.8v61.6h20.1l5.3-14.8h22v14.8V442v1v16.7v13.8h-22l-4.9-13.8
		h-20.5v50.6v46.3V568c8.2,3.6,13.3,6.8,13.3,6.8v33.5c0,0-26.1-12.2-36.7-15.4c-13.1-4-31.7-6-31.7-6v-30.3c0,0,7.4,0.5,16,1.5
		v-1.5v-29.4v-16.9v-50.6v-33.4v-61.6h-14v-33.4h14h39.2L343.8,331.3L343.8,331.3z M204.7,331.3h-39.2h-11.4v33.4h11.4v81.7
		l-40.9-117v-0.1H85.4H74.2v33.4h11.2v92.4v54.8c-9-0.5-16.8-0.5-16.8-0.5l2.7,34c0,0,18.7,0.7,32.2,4.2c10.9,2.8,38,14.4,38,14.4
		l-3-37.7c0,0-5.3-3.2-13.8-6.6v-62.6v-7L167,569.3l37.7,11.7v-0.2v-22.3V364.7h10.9v-33.4L204.7,331.3L204.7,331.3z M438,469.8
		v47.6c-10.3,2.3-21.6,5-30.9,7.6v-3.2v-37.3V364.8l11.4-5.2v-28.3h-11.4H388h-1h-19.1h-11.4v28.3l11.4,5.2v119.7v37.3v18.8
		c-6.7,3.4-12.3,6.8-16.9,9.7v38.2c12.4-7.1,43.2-24.6,58.2-30.7c28.8-11.6,59.7-14.3,59.7-14.3v-2.9v-29.7v-41.1L438,469.8
		L438,469.8z"/>
</g>
</svg>
